<?xml version="1.0" encoding="utf-8"?>
<!-- Generator: Adobe Illustrator 24.0.2, SVG Export Plug-In . SVG Version: 6.00 Build 0)  -->
<svg version="1.1" id="Lager_1" xmlns="http://www.w3.org/2000/svg" xmlns:xlink="http://www.w3.org/1999/xlink" x="0px" y="0px"
	 viewBox="0 0 48 48" style="enable-background:new 0 0 48 48;" xml:space="preserve">
<style type="text/css">
	.st0{fill:#FFFFFF;}
</style>
<title>close_white</title>
<path class="st0" d="M29.2,24L47.6,5.7c0.5-0.5,0.5-1.2,0-1.7l-3.5-3.5c-0.5-0.5-1.2-0.5-1.7,0L24,18.8L5.7,0.4C5.2,0,4.4,0,3.9,0.4
	L0.4,3.9C0,4.4,0,5.2,0.4,5.7L18.8,24L0.4,42.4c-0.5,0.5-0.5,1.2,0,1.7l3.5,3.5c0.5,0.5,1.2,0.5,1.7,0L24,29.2l18.4,18.4
	c0.5,0.5,1.2,0.5,1.7,0l3.5-3.5c0.5-0.5,0.5-1.2,0-1.7L29.2,24z"/>
</svg>
