<?xml version="1.0" encoding="utf-8"?>
<!-- Generator: Adobe Illustrator 24.0.2, SVG Export Plug-In . SVG Version: 6.00 Build 0)  -->
<svg version="1.1" id="Lager_1" xmlns="http://www.w3.org/2000/svg" xmlns:xlink="http://www.w3.org/1999/xlink" x="0px" y="0px"
	 viewBox="0 0 80 54" style="enable-background:new 0 0 80 54;" xml:space="preserve">
<style type="text/css">
	.st0{fill:#FFFFFF;}
</style>
<path class="st0" d="M78.6,53.5H1.4c-0.8,0-1.4-0.6-1.4-1.4v-9.2c0-0.8,0.6-1.4,1.4-1.4h77.2c0.8,0,1.4,0.6,1.4,1.4v9.2
	C80,52.9,79.4,53.5,78.6,53.5z"/>
<path class="st0" d="M78.6,12H1.4C0.6,12,0,11.4,0,10.6V1.4C0,0.6,0.6,0,1.4,0h77.2C79.4,0,80,0.6,80,1.4v9.2
	C80,11.4,79.4,12,78.6,12z"/>
</svg>
