<svg id="Lager_1" data-name="Lager 1" xmlns="http://www.w3.org/2000/svg" viewBox="0 0 47.45 47.49"><defs><style>.cls-1{fill:#fff;}</style></defs><title>search_white</title><path id="Union_3" data-name="Union 3" class="cls-1" d="M43.21,48,30.5,35.24A18.68,18.68,0,0,1,1.55,19.65,18.67,18.67,0,0,1,33.43,6.44,18.68,18.68,0,0,1,35.79,30l12.7,12.7a1.73,1.73,0,0,1,0,2.45L45.66,48a1.72,1.72,0,0,1-1.22.5A1.77,1.77,0,0,1,43.21,48ZM8.34,19.65A11.89,11.89,0,1,0,20.22,7.77,11.9,11.9,0,0,0,8.34,19.65Z" transform="translate(-1.55 -0.97)"/></svg>